<svg xmlns="http://www.w3.org/2000/svg" xmlns:xlink="http://www.w3.org/1999/xlink" width="1920" zoomAndPan="magnify" viewBox="0 0 1440 809.999993" height="1080" preserveAspectRatio="xMidYMid meet" version="1.0"><defs><g/><clipPath id="bb89b33833"><path d="M 454 58 L 763 58 L 763 367 L 454 367 Z M 454 58 " clip-rule="nonzero"/></clipPath><clipPath id="6da649a36c"><path d="M 724.011719 58.050781 L 762.570312 96.609375 L 492.929688 366.253906 L 454.371094 327.695312 Z M 724.011719 58.050781 " clip-rule="nonzero"/></clipPath><clipPath id="2e63ae34b2"><path d="M 688 58 L 981 58 L 981 362 L 688 362 Z M 688 58 " clip-rule="nonzero"/></clipPath><clipPath id="dc158e8bb5"><path d="M 688.335938 95.585938 L 727.890625 58.046875 L 980.363281 324.109375 L 940.804688 361.644531 Z M 688.335938 95.585938 " clip-rule="nonzero"/></clipPath><clipPath id="a80331282d"><path d="M 677.417969 236.332031 L 762.5625 236.332031 L 762.5625 384.617188 L 677.417969 384.617188 Z M 677.417969 236.332031 " clip-rule="nonzero"/></clipPath><clipPath id="e6d690461b"><path d="M 632.6875 702.105469 L 807.308594 702.105469 L 807.308594 772.460938 L 632.6875 772.460938 Z M 632.6875 702.105469 " clip-rule="nonzero"/></clipPath><clipPath id="f557b1fabb"><path d="M 807.304688 37.527344 L 877.664062 37.527344 L 877.664062 212.148438 L 807.304688 212.148438 Z M 807.304688 37.527344 " clip-rule="nonzero"/></clipPath></defs><rect x="-144" width="1728" fill="#ffffff" y="-80.999999" height="971.999992" fill-opacity="1"/><rect x="-144" width="1728" fill="#8252a1" y="-80.999999" height="971.999992" fill-opacity="1"/><g fill="#ffffff" fill-opacity="1"><g transform="translate(57.228992, 630.08982)"><g><path d="M 162.125 -44.703125 L 65.265625 -44.703125 L 46.78125 0 L -2.6875 0 L 90.296875 -208.609375 L 137.984375 -208.609375 L 231.265625 0 L 180.59375 0 Z M 146.921875 -81.359375 L 113.84375 -161.21875 L 80.765625 -81.359375 Z M 146.921875 -81.359375 "/></g></g></g><g fill="#ffffff" fill-opacity="1"><g transform="translate(285.500281, 630.08982)"><g><path d="M 116.21875 -162.71875 C 131.125 -162.71875 144.6875 -159.289062 156.90625 -152.4375 C 169.125 -145.582031 178.707031 -135.945312 185.65625 -123.53125 C 192.613281 -111.113281 196.09375 -96.660156 196.09375 -80.171875 C 196.09375 -63.679688 192.613281 -49.222656 185.65625 -36.796875 C 178.707031 -24.378906 169.125 -14.742188 156.90625 -7.890625 C 144.6875 -1.035156 131.125 2.390625 116.21875 2.390625 C 95.757812 2.390625 79.671875 -4.066406 67.953125 -16.984375 L 67.953125 57.8125 L 21.453125 57.8125 L 21.453125 -160.328125 L 65.859375 -160.328125 L 65.859375 -141.859375 C 77.378906 -155.765625 94.164062 -162.71875 116.21875 -162.71875 Z M 108.171875 -35.765625 C 120.097656 -35.765625 129.882812 -39.785156 137.53125 -47.828125 C 145.175781 -55.878906 149 -66.660156 149 -80.171875 C 149 -93.679688 145.175781 -104.457031 137.53125 -112.5 C 129.882812 -120.550781 120.097656 -124.578125 108.171875 -124.578125 C 96.253906 -124.578125 86.46875 -120.550781 78.8125 -112.5 C 71.164062 -104.457031 67.34375 -93.679688 67.34375 -80.171875 C 67.34375 -66.660156 71.164062 -55.878906 78.8125 -47.828125 C 86.46875 -39.785156 96.253906 -35.765625 108.171875 -35.765625 Z M 108.171875 -35.765625 "/></g></g></g><g fill="#ffffff" fill-opacity="1"><g transform="translate(491.123227, 630.08982)"><g><path d="M 86.125 -162.71875 C 110.957031 -162.71875 130.03125 -156.804688 143.34375 -144.984375 C 156.65625 -133.160156 163.3125 -115.328125 163.3125 -91.484375 L 163.3125 0 L 119.796875 0 L 119.796875 -19.96875 C 111.054688 -5.0625 94.765625 2.390625 70.921875 2.390625 C 58.609375 2.390625 47.929688 0.304688 38.890625 -3.859375 C 29.847656 -8.035156 22.941406 -13.800781 18.171875 -21.15625 C 13.410156 -28.507812 11.03125 -36.851562 11.03125 -46.1875 C 11.03125 -61.09375 16.640625 -72.816406 27.859375 -81.359375 C 39.085938 -89.898438 56.425781 -94.171875 79.875 -94.171875 L 116.828125 -94.171875 C 116.828125 -104.304688 113.742188 -112.101562 107.578125 -117.5625 C 101.421875 -123.03125 92.1875 -125.765625 79.875 -125.765625 C 71.320312 -125.765625 62.921875 -124.421875 54.671875 -121.734375 C 46.429688 -119.054688 39.429688 -115.429688 33.671875 -110.859375 L 16.984375 -143.34375 C 25.722656 -149.5 36.203125 -154.265625 48.421875 -157.640625 C 60.640625 -161.023438 73.207031 -162.71875 86.125 -162.71875 Z M 82.546875 -28.90625 C 90.492188 -28.90625 97.546875 -30.742188 103.703125 -34.421875 C 109.867188 -38.097656 114.242188 -43.507812 116.828125 -50.65625 L 116.828125 -67.046875 L 84.9375 -67.046875 C 65.863281 -67.046875 56.328125 -60.789062 56.328125 -48.28125 C 56.328125 -42.320312 58.660156 -37.601562 63.328125 -34.125 C 67.992188 -30.644531 74.398438 -28.90625 82.546875 -28.90625 Z M 82.546875 -28.90625 "/></g></g></g><g fill="#ffffff" fill-opacity="1"><g transform="translate(674.99192, 630.08982)"><g><path d="M 65.859375 -139.171875 C 71.421875 -146.921875 78.921875 -152.78125 88.359375 -156.75 C 97.796875 -160.726562 108.675781 -162.71875 121 -162.71875 L 121 -119.796875 C 115.832031 -120.191406 112.351562 -120.390625 110.5625 -120.390625 C 97.25 -120.390625 86.816406 -116.664062 79.265625 -109.21875 C 71.722656 -101.769531 67.953125 -90.597656 67.953125 -75.703125 L 67.953125 0 L 21.453125 0 L 21.453125 -160.328125 L 65.859375 -160.328125 Z M 65.859375 -139.171875 "/></g></g></g><g fill="#ffffff" fill-opacity="1"><g transform="translate(803.43177, 630.08982)"><g><path d="M 124.875 -7.75 C 120.300781 -4.375 114.6875 -1.835938 108.03125 -0.140625 C 101.375 1.546875 94.367188 2.390625 87.015625 2.390625 C 67.941406 2.390625 53.191406 -2.476562 42.765625 -12.21875 C 32.335938 -21.957031 27.125 -36.265625 27.125 -55.140625 L 27.125 -121 L 2.390625 -121 L 2.390625 -156.75 L 27.125 -156.75 L 27.125 -195.796875 L 73.609375 -195.796875 L 73.609375 -156.75 L 113.546875 -156.75 L 113.546875 -121 L 73.609375 -121 L 73.609375 -55.734375 C 73.609375 -48.972656 75.347656 -43.753906 78.828125 -40.078125 C 82.304688 -36.398438 87.222656 -34.5625 93.578125 -34.5625 C 100.929688 -34.5625 107.191406 -36.550781 112.359375 -40.53125 Z M 124.875 -7.75 "/></g></g></g><g fill="#ffffff" fill-opacity="1"><g transform="translate(933.063611, 630.08982)"><g><path d="M 21.453125 -160.328125 L 67.953125 -160.328125 L 67.953125 0 L 21.453125 0 Z M 44.703125 -182.6875 C 36.160156 -182.6875 29.207031 -185.164062 23.84375 -190.125 C 18.476562 -195.09375 15.796875 -201.253906 15.796875 -208.609375 C 15.796875 -215.960938 18.476562 -222.117188 23.84375 -227.078125 C 29.207031 -232.046875 36.160156 -234.53125 44.703125 -234.53125 C 53.242188 -234.53125 60.195312 -232.144531 65.5625 -227.375 C 70.925781 -222.613281 73.609375 -216.65625 73.609375 -209.5 C 73.609375 -201.75 70.925781 -195.34375 65.5625 -190.28125 C 60.195312 -185.21875 53.242188 -182.6875 44.703125 -182.6875 Z M 44.703125 -182.6875 "/></g></g></g><g fill="#ffffff" fill-opacity="1"><g transform="translate(1022.762963, 630.08982)"><g><path d="M 98.9375 2.390625 C 81.851562 2.390625 66.503906 -1.132812 52.890625 -8.1875 C 39.285156 -15.25 28.65625 -25.035156 21 -37.546875 C 13.351562 -50.066406 9.53125 -64.273438 9.53125 -80.171875 C 9.53125 -96.054688 13.351562 -110.257812 21 -122.78125 C 28.65625 -135.300781 39.285156 -145.085938 52.890625 -152.140625 C 66.503906 -159.191406 81.851562 -162.71875 98.9375 -162.71875 C 115.820312 -162.71875 130.570312 -159.191406 143.1875 -152.140625 C 155.8125 -145.085938 165.003906 -135.003906 170.765625 -121.890625 L 134.703125 -102.515625 C 126.359375 -117.222656 114.335938 -124.578125 98.640625 -124.578125 C 86.523438 -124.578125 76.492188 -120.601562 68.546875 -112.65625 C 60.597656 -104.707031 56.625 -93.878906 56.625 -80.171875 C 56.625 -66.460938 60.597656 -55.632812 68.546875 -47.6875 C 76.492188 -39.738281 86.523438 -35.765625 98.640625 -35.765625 C 114.535156 -35.765625 126.554688 -43.113281 134.703125 -57.8125 L 170.765625 -38.140625 C 165.003906 -25.429688 155.8125 -15.5 143.1875 -8.34375 C 130.570312 -1.1875 115.820312 2.390625 98.9375 2.390625 Z M 98.9375 2.390625 "/></g></g></g><g fill="#ffffff" fill-opacity="1"><g transform="translate(1198.883479, 630.08982)"><g><path d="M 86.125 -162.71875 C 110.957031 -162.71875 130.03125 -156.804688 143.34375 -144.984375 C 156.65625 -133.160156 163.3125 -115.328125 163.3125 -91.484375 L 163.3125 0 L 119.796875 0 L 119.796875 -19.96875 C 111.054688 -5.0625 94.765625 2.390625 70.921875 2.390625 C 58.609375 2.390625 47.929688 0.304688 38.890625 -3.859375 C 29.847656 -8.035156 22.941406 -13.800781 18.171875 -21.15625 C 13.410156 -28.507812 11.03125 -36.851562 11.03125 -46.1875 C 11.03125 -61.09375 16.640625 -72.816406 27.859375 -81.359375 C 39.085938 -89.898438 56.425781 -94.171875 79.875 -94.171875 L 116.828125 -94.171875 C 116.828125 -104.304688 113.742188 -112.101562 107.578125 -117.5625 C 101.421875 -123.03125 92.1875 -125.765625 79.875 -125.765625 C 71.320312 -125.765625 62.921875 -124.421875 54.671875 -121.734375 C 46.429688 -119.054688 39.429688 -115.429688 33.671875 -110.859375 L 16.984375 -143.34375 C 25.722656 -149.5 36.203125 -154.265625 48.421875 -157.640625 C 60.640625 -161.023438 73.207031 -162.71875 86.125 -162.71875 Z M 82.546875 -28.90625 C 90.492188 -28.90625 97.546875 -30.742188 103.703125 -34.421875 C 109.867188 -38.097656 114.242188 -43.507812 116.828125 -50.65625 L 116.828125 -67.046875 L 84.9375 -67.046875 C 65.863281 -67.046875 56.328125 -60.789062 56.328125 -48.28125 C 56.328125 -42.320312 58.660156 -37.601562 63.328125 -34.125 C 67.992188 -30.644531 74.398438 -28.90625 82.546875 -28.90625 Z M 82.546875 -28.90625 "/></g></g></g><g clip-path="url(#bb89b33833)"><g clip-path="url(#6da649a36c)"><path fill="#ffffff" d="M 724.011719 58.050781 L 762.570312 96.609375 L 492.957031 366.222656 L 454.398438 327.664062 Z M 724.011719 58.050781 " fill-opacity="1" fill-rule="nonzero"/></g></g><g clip-path="url(#2e63ae34b2)"><g clip-path="url(#dc158e8bb5)"><path fill="#ffffff" d="M 688.335938 95.585938 L 727.890625 58.046875 L 980.375 324.125 L 940.820312 361.660156 Z M 688.335938 95.585938 " fill-opacity="1" fill-rule="nonzero"/></g></g><g clip-path="url(#a80331282d)"><path fill="#ffffff" d="M 762.5625 384.617188 L 677.417969 384.617188 L 677.417969 236.28125 L 762.5625 236.28125 Z M 762.5625 384.617188 " fill-opacity="1" fill-rule="nonzero"/></g><g clip-path="url(#e6d690461b)"><path fill="#ffffff" d="M 807.308594 772.460938 L 632.792969 772.460938 L 632.792969 702.105469 L 807.308594 702.105469 Z M 807.308594 772.460938 " fill-opacity="1" fill-rule="nonzero"/></g><g clip-path="url(#f557b1fabb)"><path fill="#ffffff" d="M 877.664062 37.527344 L 877.664062 212.042969 L 807.304688 212.042969 L 807.304688 37.527344 Z M 877.664062 37.527344 " fill-opacity="1" fill-rule="nonzero"/></g></svg>